# xmcd CD database file
#
# Track frame offsets:
#	150
#	14950
#	29185
#	50342
#	66797
#	93185
#	108995
#	129510
#	157850
#
# Disc length: 2454 seconds
#
# Revision: 5
# Processed by: cddbd v1.5.2PL0 Copyright (c) Steve Scherf et al.
# Submitted via: CDex 2.00
#
DISCID=75099409
DTITLE=Ry Cooder - Get Rhythm
DYEAR=2013
DGENRE=Blues
TTITLE0=Get Rhythm
TTITLE1=Low-Commotion
TTITLE2=Going Back To Okinawa
TTITLE3=13 Question Method
TTITLE4=Women Will Rule The World
TTITLE5=All Shook Up
TTITLE6=I Can Tell By The Way You Smell
TTITLE7=Across The Borderline
TTITLE8=Let's Have A Ball
EXTD=YEAR: 2013
EXTT0=
EXTT1=
EXTT2=
EXTT3=
EXTT4=
EXTT5=
EXTT6=
EXTT7=
EXTT8=
PLAYORDER=
